{
  "accessors": [
    {
      "bufferView": 1,
      "componentType": 5126,
      "count": 12240,
      "max": [
        1.0038751363754272,
        0.07124173641204834,
        1.0036600828170776
      ],
      "min": [
        -1.0038866996765137,
        -0.07124826312065125,
        -1.0036612749099731
      ],
      "type": "VEC3"
    },
    {
      "bufferView": 1,
      "byteOffset": 146880,
      "componentType": 5126,
      "count": 12240,
      "max": [
        1.0,
        1.0,
        1.0
      ],
      "min": [
        -1.0,
        -1.0,
        -1.0
      ],
      "type": "VEC3"
    },
    {
      "bufferView": 0,
      "componentType": 5125,
      "count": 70188,
      "type": "SCALAR"
    },
    {
      "bufferView": 1,
      "byteOffset": 293760,
      "componentType": 5126,
      "count": 16,
      "max": [
        -0.3085883855819702,
        0.06758182495832443,
        -0.10287901014089584
      ],
      "min": [
        -0.3393183946609497,
        0.06391343474388123,
        -0.2404165416955948
      ],
      "type": "VEC3"
    },
    {
      "bufferView": 1,
      "byteOffset": 293952,
      "componentType": 5126,
      "count": 16,
      "max": [
        0.5773502588272095,
        0.5773502588272095,
        0.5773502588272095
      ],
      "min": [
        -0.5773502588272095,
        -0.5773502588272095,
        -0.5773502588272095
      ],
      "type": "VEC3"
    },
    {
      "bufferView": 0,
      "byteOffset": 280752,
      "componentType": 5125,
      "count": 72,
      "type": "SCALAR"
    },
    {
      "bufferView": 1,
      "byteOffset": 294144,
      "componentType": 5126,
      "count": 16974,
      "max": [
        0.9532133936882019,
        0.07124000787734985,
        0.9253052473068237
      ],
      "min": [
        -0.9249334335327148,
        0.06391339004039764,
        -0.9253050684928894
      ],
      "type": "VEC3"
    },
    {
      "bufferView": 1,
      "byteOffset": 497832,
      "componentType": 5126,
      "count": 16974,
      "max": [
        0.8168625831604004,
        1.0,
        0.8168691396713257
      ],
      "min": [
        -0.8168625831604004,
        -1.0,
        -0.8171095848083496
      ],
      "type": "VEC3"
    },
    {
      "bufferView": 0,
      "byteOffset": 281040,
      "componentType": 5125,
      "count": 99288,
      "type": "SCALAR"
    },
    {
      "bufferView": 1,
      "byteOffset": 701520,
      "componentType": 5126,
      "count": 84,
      "max": [
        -0.6433624029159546,
        -0.06391764432191849,
        0.22922185063362122
      ],
      "min": [
        -0.9212290644645691,
        -0.06758888065814972,
        0.12209359556436539
      ],
      "type": "VEC3"
    },
    {
      "bufferView": 1,
      "byteOffset": 702528,
      "componentType": 5126,
      "count": 84,
      "max": [
        0.5852096676826477,
        0.9045395851135254,
        0.5868270397186279
      ],
      "min": [
        -0.5773502588272095,
        -0.9045395851135254,
        -0.5773502588272095
      ],
      "type": "VEC3"
    },
    {
      "bufferView": 0,
      "byteOffset": 678192,
      "componentType": 5125,
      "count": 384,
      "type": "SCALAR"
    },
    {
      "bufferView": 1,
      "byteOffset": 703536,
      "componentType": 5126,
      "count": 16990,
      "max": [
        0.9535210728645325,
        -0.06391722708940506,
        0.9554123878479004
      ],
      "min": [
        -0.9489993453025818,
        -0.06758891046047211,
        -0.953361988067627
      ],
      "type": "VEC3"
    },
    {
      "bufferView": 1,
      "byteOffset": 907416,
      "componentType": 5126,
      "count": 16990,
      "max": [
        0.8159915804862976,
        1.0,
        0.8226153254508972
      ],
      "min": [
        -0.8208501935005188,
        -1.0,
        -0.8190606236457825
      ],
      "type": "VEC3"
    },
    {
      "bufferView": 0,
      "byteOffset": 679728,
      "componentType": 5125,
      "count": 93228,
      "type": "SCALAR"
    }
  ],
  "asset": {
    "extras": {
      "author": "arthur (https://sketchfab.com/Arthur_mf)",
      "license": "CC-BY-4.0 (http://creativecommons.org/licenses/by/4.0/)",
      "source": "https://sketchfab.com/3d-models/bitcoin-974eb93e7e1346e8a18086b4e6529703",
      "title": "Bitcoin"
    },
    "generator": "Sketchfab-12.68.0",
    "version": "2.0"
  },
  "bufferViews": [
    {
      "buffer": 0,
      "byteLength": 1052640,
      "name": "floatBufferViews",
      "target": 34963
    },
    {
      "buffer": 0,
      "byteLength": 1111296,
      "byteOffset": 1052640,
      "byteStride": 12,
      "name": "floatBufferViews",
      "target": 34962
    }
  ],
  "buffers": [
    {
      "byteLength": 2163936,
      "uri": "scene.bin"
    }
  ],
  "materials": [
    {
      "doubleSided": true,
      "name": "Material.001",
      "pbrMetallicRoughness": {
        "baseColorFactor": [
          1.0,
          0.564711505704929,
          0.048171824226889426,
          1.0
        ],
        "roughnessFactor": 0.3421997458487618
      }
    },
    {
      "doubleSided": true,
      "name": "Material.002",
      "pbrMetallicRoughness": {
        "baseColorFactor": [
          1.0,
          0.5647119999999995,
          0.04817189999999996,
          1.0
        ],
        "metallicFactor": 0.0,
        "roughnessFactor": 0.5
      }
    },
    {
      "doubleSided": true,
      "name": "Material.003",
      "pbrMetallicRoughness": {
        "baseColorFactor": [
          1.0,
          0.5647119999999995,
          0.04817189999999996,
          1.0
        ],
        "metallicFactor": 0.0,
        "roughnessFactor": 0.5
      }
    }
  ],
  "meshes": [
    {
      "name": "Object_0",
      "primitives": [
        {
          "attributes": {
            "NORMAL": 1,
            "POSITION": 0
          },
          "indices": 2,
          "material": 0,
          "mode": 4
        }
      ]
    },
    {
      "name": "Object_1",
      "primitives": [
        {
          "attributes": {
            "NORMAL": 4,
            "POSITION": 3
          },
          "indices": 5,
          "material": 0,
          "mode": 4
        }
      ]
    },
    {
      "name": "Object_2",
      "primitives": [
        {
          "attributes": {
            "NORMAL": 7,
            "POSITION": 6
          },
          "indices": 8,
          "material": 1,
          "mode": 4
        }
      ]
    },
    {
      "name": "Object_3",
      "primitives": [
        {
          "attributes": {
            "NORMAL": 10,
            "POSITION": 9
          },
          "indices": 11,
          "material": 0,
          "mode": 4
        }
      ]
    },
    {
      "name": "Object_4",
      "primitives": [
        {
          "attributes": {
            "NORMAL": 13,
            "POSITION": 12
          },
          "indices": 14,
          "material": 2,
          "mode": 4
        }
      ]
    }
  ],
  "nodes": [
    {
      "children": [
        1
      ],
      "matrix": [
        1.0,
        0.0,
        0.0,
        0.0,
        0.0,
        2.220446049250313e-16,
        -1.0,
        0.0,
        0.0,
        1.0,
        2.220446049250313e-16,
        0.0,
        0.0,
        0.0,
        0.0,
        1.0
      ],
      "name": "Sketchfab_model"
    },
    {
      "children": [
        2
      ],
      "name": "root"
    },
    {
      "children": [
        3,
        5,
        8
      ],
      "matrix": [
        1.0,
        0.0,
        0.0,
        0.0,
        0.0,
        2.220446049250313e-16,
        1.0,
        0.0,
        0.0,
        -1.0,
        2.220446049250313e-16,
        0.0,
        0.0,
        0.0,
        0.0,
        1.0
      ],
      "name": "GLTF_SceneRootNode"
    },
    {
      "children": [
        4
      ],
      "matrix": [
        2.408740758895874,
        0.0,
        0.0,
        0.0,
        0.0,
        0.0,
        2.408740758895874,
        0.0,
        0.0,
        -2.408740758895874,
        0.0,
        0.0,
        4.439055442810059,
        2.425600290298462,
        1.4814420938491821,
        1.0
      ],
      "name": "Circle.000_2"
    },
    {
      "mesh": 0,
      "name": "Object_4"
    },
    {
      "children": [
        6,
        7
      ],
      "matrix": [
        2.408740758895874,
        0.0,
        0.0,
        0.0,
        0.0,
        0.0,
        2.408740758895874,
        0.0,
        0.0,
        -2.408740758895874,
        0.0,
        0.0,
        4.3727850914001465,
        2.425600290298462,
        1.4814420938491821,
        1.0
      ],
      "name": "Circle.005_3"
    },
    {
      "mesh": 1,
      "name": "Object_6"
    },
    {
      "mesh": 2,
      "name": "Object_7"
    },
    {
      "children": [
        9,
        10
      ],
      "matrix": [
        2.408740758895874,
        0.0,
        0.0,
        0.0,
        0.0,
        0.0,
        2.408740758895874,
        0.0,
        0.0,
        -2.408740758895874,
        0.0,
        0.0,
        4.439055442810059,
        2.425600290298462,
        1.4814420938491821,
        1.0
      ],
      "name": "Circle.006_4"
    },
    {
      "mesh": 3,
      "name": "Object_9"
    },
    {
      "mesh": 4,
      "name": "Object_10"
    }
  ],
  "scene": 0,
  "scenes": [
    {
      "name": "Sketchfab_Scene",
      "nodes": [
        0
      ]
    }
  ]
}
