{
  "accessors": [
    {
      "bufferView": 1,
      "componentType": 5126,
      "count": 558,
      "max": [
        22.4335994720459,
        12.281200408935547,
        19.200000762939453
      ],
      "min": [
        -31.09630012512207,
        -12.748600006103516,
        0.0
      ],
      "type": "VEC3"
    },
    {
      "bufferView": 1,
      "byteOffset": 6696,
      "componentType": 5126,
      "count": 558,
      "max": [
        1.0,
        0.9999755620956421,
        1.0
      ],
      "min": [
        -1.0,
        -1.0,
        -1.0
      ],
      "type": "VEC3"
    },
    {
      "bufferView": 0,
      "componentType": 5125,
      "count": 780,
      "type": "SCALAR"
    }
  ],
  "asset": {
    "extras": {
      "author": "Microsoft (https://sketchfab.com/microsoft)",
      "license": "CC-BY-4.0 (http://creativecommons.org/licenses/by/4.0/)",
      "source": "https://sketchfab.com/3d-models/standard-chair-c80c7f9c3e2d4231911b818e5180d902",
      "title": "Standard Chair"
    },
    "generator": "Sketchfab-12.68.0",
    "version": "2.0"
  },
  "bufferViews": [
    {
      "buffer": 0,
      "byteLength": 3120,
      "name": "floatBufferViews",
      "target": 34963
    },
    {
      "buffer": 0,
      "byteLength": 13392,
      "byteOffset": 3120,
      "byteStride": 12,
      "name": "floatBufferViews",
      "target": 34962
    }
  ],
  "buffers": [
    {
      "byteLength": 16512,
      "uri": "scene.bin"
    }
  ],
  "materials": [
    {
      "doubleSided": true,
      "name": "wire_224086086",
      "pbrMetallicRoughness": {
        "baseColorFactor": [
          1.0,
          0.4757652197,
          0.0631596481,
          1.0
        ],
        "metallicFactor": 0.0,
        "roughnessFactor": 0.6
      }
    }
  ],
  "meshes": [
    {
      "name": "Object_0",
      "primitives": [
        {
          "attributes": {
            "NORMAL": 1,
            "POSITION": 0
          },
          "indices": 2,
          "material": 0,
          "mode": 4
        }
      ]
    }
  ],
  "nodes": [
    {
      "children": [
        1
      ],
      "matrix": [
        0.0,
        -1.0,
        -2.220446049250313e-16,
        0.0,
        0.0,
        2.220446049250313e-16,
        -1.0,
        0.0,
        1.0,
        0.0,
        0.0,
        0.0,
        -13.931361198425293,
        5.2686262130737305,
        1.1698700259796203e-15,
        1.0
      ],
      "name": "Sketchfab_model"
    },
    {
      "children": [
        2
      ],
      "name": "1f133f98b6fa4ac9a6d0fe6dfd55e920.obj.cleaner"
    },
    {
      "mesh": 0,
      "name": "Object_2"
    }
  ],
  "scene": 0,
  "scenes": [
    {
      "name": "Sketchfab_Scene",
      "nodes": [
        0
      ]
    }
  ]
}
