{
  "accessors": [
    {
      "bufferView": 1,
      "componentType": 5126,
      "count": 3080,
      "max": [
        10.0,
        9.995699882507324,
        25.0
      ],
      "min": [
        -9.997599601745605,
        -10.004300117492676,
        0.0
      ],
      "type": "VEC3"
    },
    {
      "bufferView": 1,
      "byteOffset": 36960,
      "componentType": 5126,
      "count": 3080,
      "max": [
        1.0,
        0.9992275238037109,
        0.9999966621398926
      ],
      "min": [
        -0.999049186706543,
        -0.9992391467094421,
        -0.9989966750144958
      ],
      "type": "VEC3"
    },
    {
      "bufferView": 0,
      "componentType": 5125,
      "count": 18120,
      "type": "SCALAR"
    },
    {
      "bufferView": 1,
      "byteOffset": 73920,
      "componentType": 5126,
      "count": 1200,
      "max": [
        18.25,
        1.7457000017166138,
        21.75
      ],
      "min": [
        9.84570026397705,
        -1.7542999982833862,
        3.25
      ],
      "type": "VEC3"
    },
    {
      "bufferView": 1,
      "byteOffset": 88320,
      "componentType": 5126,
      "count": 1200,
      "max": [
        0.9996079802513123,
        1.0,
        0.9999954700469971
      ],
      "min": [
        -0.999605119228363,
        -1.0,
        -0.9999957084655762
      ],
      "type": "VEC3"
    },
    {
      "bufferView": 0,
      "byteOffset": 72480,
      "componentType": 5125,
      "count": 6840,
      "type": "SCALAR"
    }
  ],
  "asset": {
    "extras": {
      "author": "Microsoft (https://sketchfab.com/microsoft)",
      "license": "CC-BY-4.0 (http://creativecommons.org/licenses/by/4.0/)",
      "source": "https://sketchfab.com/3d-models/mug-17c4808537f1448590378b3643c6da72",
      "title": "Mug"
    },
    "generator": "Sketchfab-12.67.0",
    "version": "2.0"
  },
  "bufferViews": [
    {
      "buffer": 0,
      "byteLength": 99840,
      "name": "floatBufferViews",
      "target": 34963
    },
    {
      "buffer": 0,
      "byteLength": 102720,
      "byteOffset": 99840,
      "byteStride": 12,
      "name": "floatBufferViews",
      "target": 34962
    }
  ],
  "buffers": [
    {
      "byteLength": 202560,
      "uri": "scene.bin"
    }
  ],
  "materials": [
    {
      "doubleSided": true,
      "name": "wire_153228184",
      "pbrMetallicRoughness": {
        "baseColorFactor": [
          0.766561419,
          0.7589173889,
          0.7589173889,
          1.0
        ],
        "metallicFactor": 0.0,
        "roughnessFactor": 0.6
      }
    }
  ],
  "meshes": [
    {
      "name": "Object_0",
      "primitives": [
        {
          "attributes": {
            "NORMAL": 1,
            "POSITION": 0
          },
          "indices": 2,
          "material": 0,
          "mode": 4
        }
      ]
    },
    {
      "name": "Object_1",
      "primitives": [
        {
          "attributes": {
            "NORMAL": 4,
            "POSITION": 3
          },
          "indices": 5,
          "material": 0,
          "mode": 4
        }
      ]
    }
  ],
  "nodes": [
    {
      "children": [
        1
      ],
      "matrix": [
        1.0,
        0.0,
        0.0,
        0.0,
        0.0,
        2.220446049250313e-16,
        -1.0,
        0.0,
        0.0,
        1.0,
        2.220446049250313e-16,
        0.0,
        0.0,
        0.0,
        0.0,
        1.0
      ],
      "name": "Sketchfab_model"
    },
    {
      "children": [
        2,
        3
      ],
      "name": "4f892747d0d2431f8129fe016b597c7f.obj.cleaner"
    },
    {
      "mesh": 0,
      "name": "Object_2"
    },
    {
      "mesh": 1,
      "name": "Object_3"
    }
  ],
  "scene": 0,
  "scenes": [
    {
      "name": "Sketchfab_Scene",
      "nodes": [
        0
      ]
    }
  ]
}
