{
  "accessors": [
    {
      "bufferView": 2,
      "componentType": 5126,
      "count": 1119,
      "max": [
        6.320400238037109,
        6.374599933624268,
        16.736299514770508
      ],
      "min": [
        -6.535299777984619,
        -6.53439998626709,
        0.010499999858438969
      ],
      "type": "VEC3"
    },
    {
      "bufferView": 2,
      "byteOffset": 13428,
      "componentType": 5126,
      "count": 1119,
      "max": [
        0.9992761611938477,
        0.9997503161430359,
        0.9608067274093628
      ],
      "min": [
        -0.999633252620697,
        -0.9996039271354675,
        -0.9228087067604065
      ],
      "type": "VEC3"
    },
    {
      "bufferView": 1,
      "componentType": 5126,
      "count": 1119,
      "max": [
        0.9735999703407288,
        0.9442999958992004
      ],
      "min": [
        0.4453999996185303,
        0.010999999940395355
      ],
      "type": "VEC2"
    },
    {
      "bufferView": 0,
      "componentType": 5125,
      "count": 1551,
      "type": "SCALAR"
    },
    {
      "bufferView": 2,
      "byteOffset": 26856,
      "componentType": 5126,
      "count": 2491,
      "max": [
        6.300600051879883,
        6.374599933624268,
        28.880800247192383
      ],
      "min": [
        -6.550000190734863,
        -6.8171000480651855,
        0.010499999858438969
      ],
      "type": "VEC3"
    },
    {
      "bufferView": 2,
      "byteOffset": 56748,
      "componentType": 5126,
      "count": 2491,
      "max": [
        0.9998055100440979,
        0.9992484450340271,
        0.9989139437675476
      ],
      "min": [
        -0.9998055100440979,
        -0.995326817035675,
        -0.9679136872291565
      ],
      "type": "VEC3"
    },
    {
      "bufferView": 1,
      "byteOffset": 8952,
      "componentType": 5126,
      "count": 2491,
      "max": [
        0.9726999998092651,
        0.961899995803833
      ],
      "min": [
        0.17829999327659607,
        0.010999999940395355
      ],
      "type": "VEC2"
    },
    {
      "bufferView": 0,
      "byteOffset": 6204,
      "componentType": 5125,
      "count": 9198,
      "type": "SCALAR"
    },
    {
      "bufferView": 2,
      "byteOffset": 86640,
      "componentType": 5126,
      "count": 7219,
      "max": [
        6.5355000495910645,
        6.564300060272217,
        31.388200759887695
      ],
      "min": [
        -6.892499923706055,
        -6.82289981842041,
        0.010499999858438969
      ],
      "type": "VEC3"
    },
    {
      "bufferView": 2,
      "byteOffset": 173268,
      "componentType": 5126,
      "count": 7219,
      "max": [
        1.0,
        0.999882698059082,
        0.999729335308075
      ],
      "min": [
        -0.9999836683273315,
        -0.9999445676803589,
        -0.9999864101409912
      ],
      "type": "VEC3"
    },
    {
      "bufferView": 1,
      "byteOffset": 28880,
      "componentType": 5126,
      "count": 7219,
      "max": [
        0.9824000000953674,
        0.9617999792098999
      ],
      "min": [
        0.15000000596046448,
        0.010999999940395355
      ],
      "type": "VEC2"
    },
    {
      "bufferView": 0,
      "byteOffset": 42996,
      "componentType": 5125,
      "count": 31785,
      "type": "SCALAR"
    },
    {
      "bufferView": 2,
      "byteOffset": 259896,
      "componentType": 5126,
      "count": 7664,
      "max": [
        6.5894999504089355,
        6.60099983215332,
        28.348899841308594
      ],
      "min": [
        -6.746200084686279,
        -6.8171000480651855,
        0.010499999858438969
      ],
      "type": "VEC3"
    },
    {
      "bufferView": 2,
      "byteOffset": 351864,
      "componentType": 5126,
      "count": 7664,
      "max": [
        0.9999896287918091,
        0.9977438449859619,
        0.9997995495796204
      ],
      "min": [
        -0.9992599487304688,
        -0.9998817443847656,
        -0.9984310269355774
      ],
      "type": "VEC3"
    },
    {
      "bufferView": 1,
      "byteOffset": 86632,
      "componentType": 5126,
      "count": 7664,
      "max": [
        0.9846000075340271,
        0.9584000110626221
      ],
      "min": [
        0.014999999664723873,
        0.008799999952316284
      ],
      "type": "VEC2"
    },
    {
      "bufferView": 0,
      "byteOffset": 170136,
      "componentType": 5125,
      "count": 35331,
      "type": "SCALAR"
    },
    {
      "bufferView": 2,
      "byteOffset": 443832,
      "componentType": 5126,
      "count": 13226,
      "max": [
        6.5355000495910645,
        6.67579984664917,
        31.799299240112305
      ],
      "min": [
        -6.87060022354126,
        -6.8678998947143555,
        -0.0013000000035390258
      ],
      "type": "VEC3"
    },
    {
      "bufferView": 2,
      "byteOffset": 602544,
      "componentType": 5126,
      "count": 13226,
      "max": [
        1.0,
        0.999882698059082,
        0.9976692795753479
      ],
      "min": [
        -0.9999896287918091,
        -0.9999748468399048,
        -1.0
      ],
      "type": "VEC3"
    },
    {
      "bufferView": 1,
      "byteOffset": 147944,
      "componentType": 5126,
      "count": 13226,
      "max": [
        0.9824000000953674,
        0.9635999798774719
      ],
      "min": [
        0.09120000153779984,
        0.010300000198185444
      ],
      "type": "VEC2"
    },
    {
      "bufferView": 0,
      "byteOffset": 311460,
      "componentType": 5125,
      "count": 65274,
      "type": "SCALAR"
    },
    {
      "bufferView": 2,
      "byteOffset": 761256,
      "componentType": 5126,
      "count": 17895,
      "max": [
        6.663000106811523,
        6.686800003051758,
        32.35449981689453
      ],
      "min": [
        -6.8190999031066895,
        -6.8678998947143555,
        0.007799999788403511
      ],
      "type": "VEC3"
    },
    {
      "bufferView": 2,
      "byteOffset": 975996,
      "componentType": 5126,
      "count": 17895,
      "max": [
        1.0,
        0.9999994039535522,
        0.9996190667152405
      ],
      "min": [
        -0.9998236298561096,
        -0.999961256980896,
        -0.9996042847633362
      ],
      "type": "VEC3"
    },
    {
      "bufferView": 1,
      "byteOffset": 253752,
      "componentType": 5126,
      "count": 17895,
      "max": [
        0.9876000285148621,
        0.9979000091552734
      ],
      "min": [
        0.08749999850988388,
        0.01080000028014183
      ],
      "type": "VEC2"
    },
    {
      "bufferView": 0,
      "byteOffset": 572556,
      "componentType": 5125,
      "count": 91422,
      "type": "SCALAR"
    }
  ],
  "asset": {
    "extras": {
      "author": "Microsoft (https://sketchfab.com/microsoft)",
      "license": "CC-BY-4.0 (http://creativecommons.org/licenses/by/4.0/)",
      "source": "https://sketchfab.com/3d-models/pineapple-68558b246dc34452a1a8be5fa2c92e5b",
      "title": "Pineapple"
    },
    "generator": "Sketchfab-12.68.0",
    "version": "2.0"
  },
  "bufferViews": [
    {
      "buffer": 0,
      "byteLength": 938244,
      "name": "floatBufferViews",
      "target": 34963
    },
    {
      "buffer": 0,
      "byteLength": 396912,
      "byteOffset": 938244,
      "byteStride": 8,
      "name": "floatBufferViews",
      "target": 34962
    },
    {
      "buffer": 0,
      "byteLength": 1190736,
      "byteOffset": 1335156,
      "byteStride": 12,
      "name": "floatBufferViews",
      "target": 34962
    }
  ],
  "buffers": [
    {
      "byteLength": 2525892,
      "uri": "scene.bin"
    }
  ],
  "images": [
    {
      "uri": "textures/wire_135006006_baseColor.jpeg"
    }
  ],
  "materials": [
    {
      "doubleSided": true,
      "name": "wire_135006006",
      "pbrMetallicRoughness": {
        "baseColorTexture": {
          "index": 0
        },
        "metallicFactor": 0.0,
        "roughnessFactor": 0.6
      }
    }
  ],
  "meshes": [
    {
      "name": "Object_0",
      "primitives": [
        {
          "attributes": {
            "NORMAL": 1,
            "POSITION": 0,
            "TEXCOORD_0": 2
          },
          "indices": 3,
          "material": 0,
          "mode": 4
        }
      ]
    },
    {
      "name": "Object_1",
      "primitives": [
        {
          "attributes": {
            "NORMAL": 5,
            "POSITION": 4,
            "TEXCOORD_0": 6
          },
          "indices": 7,
          "material": 0,
          "mode": 4
        }
      ]
    },
    {
      "name": "Object_2",
      "primitives": [
        {
          "attributes": {
            "NORMAL": 9,
            "POSITION": 8,
            "TEXCOORD_0": 10
          },
          "indices": 11,
          "material": 0,
          "mode": 4
        }
      ]
    },
    {
      "name": "Object_3",
      "primitives": [
        {
          "attributes": {
            "NORMAL": 13,
            "POSITION": 12,
            "TEXCOORD_0": 14
          },
          "indices": 15,
          "material": 0,
          "mode": 4
        }
      ]
    },
    {
      "name": "Object_4",
      "primitives": [
        {
          "attributes": {
            "NORMAL": 17,
            "POSITION": 16,
            "TEXCOORD_0": 18
          },
          "indices": 19,
          "material": 0,
          "mode": 4
        }
      ]
    },
    {
      "name": "Object_5",
      "primitives": [
        {
          "attributes": {
            "NORMAL": 21,
            "POSITION": 20,
            "TEXCOORD_0": 22
          },
          "indices": 23,
          "material": 0,
          "mode": 4
        }
      ]
    }
  ],
  "nodes": [
    {
      "children": [
        1
      ],
      "matrix": [
        1.0,
        0.0,
        0.0,
        0.0,
        0.0,
        2.220446049250313e-16,
        -1.0,
        0.0,
        0.0,
        1.0,
        2.220446049250313e-16,
        0.0,
        0.0,
        0.0,
        0.0,
        1.0
      ],
      "name": "Sketchfab_model"
    },
    {
      "children": [
        2,
        3,
        4,
        5,
        6,
        7
      ],
      "name": "1b0aa9dbc82d446b9959682a504c52a5.obj.cleaner"
    },
    {
      "mesh": 0,
      "name": "Object_2"
    },
    {
      "mesh": 1,
      "name": "Object_3"
    },
    {
      "mesh": 2,
      "name": "Object_4"
    },
    {
      "mesh": 3,
      "name": "Object_5"
    },
    {
      "mesh": 4,
      "name": "Object_6"
    },
    {
      "mesh": 5,
      "name": "Object_7"
    }
  ],
  "samplers": [
    {
      "magFilter": 9729,
      "minFilter": 9987,
      "wrapS": 10497,
      "wrapT": 10497
    }
  ],
  "scene": 0,
  "scenes": [
    {
      "name": "Sketchfab_Scene",
      "nodes": [
        0
      ]
    }
  ],
  "textures": [
    {
      "sampler": 0,
      "source": 0
    }
  ]
}
